<svg width="153" height="153" viewBox="0 0 153 153" fill="none" xmlns="http://www.w3.org/2000/svg">
<rect width="153" height="153" rx="30" fill="white"/>
<g clip-path="url(#clip0_36_997)">
<path d="M127.737 108.67C123.21 106.021 118.861 105.457 114.807 107C108.362 109.452 106.574 115.73 106.279 116.964C105.449 120.459 105.811 123.595 107.351 126.293C109.17 129.474 113.163 132.948 118.454 132.264C123.335 131.634 127.245 127.623 127.96 122.502C128.218 120.637 126.92 118.916 125.058 118.658C123.188 118.398 121.47 119.696 121.212 121.56C120.925 123.611 119.403 125.271 117.586 125.503C115.498 125.771 113.849 123.925 113.272 122.909C112.285 121.183 112.727 119.326 112.915 118.536C112.95 118.379 113.876 114.647 117.235 113.365C120.289 112.203 123.196 113.908 124.292 114.549C127.846 116.631 128.953 120.316 129.139 121.028C130.426 125.989 127.612 130.974 124.452 133.506C122.281 135.246 119.893 135.924 118.201 136.182H114.139C111.764 135.379 109.577 134.076 107.79 132.395C106.821 131.485 104.254 129.072 103.183 125.013C102.89 123.912 102.733 122.779 102.714 121.624V121.603C102.714 121.542 102.712 121.486 102.709 121.427C102.709 121.199 102.714 120.97 102.722 120.741V120.669L102.725 32.3919V32.2563C102.712 31.9983 102.709 31.7376 102.712 31.4796C102.714 31.453 102.714 31.421 102.714 31.3918V31.3732C102.733 30.2161 102.893 29.0829 103.183 27.9817C104.254 23.9225 106.821 21.5099 107.79 20.6002C109.577 18.9217 111.764 17.6183 114.139 16.8123H118.201C119.893 17.0703 122.281 17.7513 124.452 19.4909C127.612 22.0206 130.424 27.0028 129.139 31.9637C128.953 32.6819 127.846 36.3633 124.292 38.4461C123.196 39.0872 120.289 40.7896 117.235 39.6298C113.873 38.3503 112.95 34.6184 112.915 34.4614C112.727 33.6687 112.285 31.8121 113.272 30.0857C113.849 29.0723 115.501 27.2236 117.586 27.4922C119.403 27.7236 120.925 29.3835 121.212 31.4343C121.47 33.299 123.191 34.6024 125.058 34.3391C126.92 34.0784 128.221 32.3574 127.96 30.4927C127.245 25.3722 123.337 21.3609 118.454 20.7305C113.163 20.0495 109.168 23.5208 107.351 26.7022C105.811 29.3994 105.451 32.5356 106.279 36.0335C106.574 37.2651 108.362 43.5427 114.807 45.9952C116.296 46.5618 117.82 46.8437 119.382 46.8437C122.076 46.8437 124.869 46.0032 127.737 44.3247C133.467 40.9651 135.307 35.3233 135.736 33.6741C137.794 25.7393 133.693 18.1609 128.716 14.1709C125.96 11.9632 122.571 10.5294 118.911 10.0267L118.682 9.99475H34.3204L34.0916 10.0267C30.4315 10.5294 27.0426 11.9632 24.2869 14.1709C19.31 18.1583 15.2083 25.7366 17.2671 33.6741C17.6954 35.3233 19.5361 40.9651 25.2657 44.3247C28.1332 46.0032 30.9289 46.8437 33.6208 46.8437C35.1796 46.8437 36.7064 46.5618 38.196 45.9952C44.6412 43.5453 46.4287 37.2651 46.724 36.0308C47.5539 32.5356 47.1921 29.3994 45.652 26.7022C43.8326 23.5208 39.8372 20.0469 34.5492 20.7305C29.6681 21.3609 25.7578 25.3722 25.0423 30.4927C24.7843 32.3574 26.0824 34.0784 27.9444 34.3391C29.8144 34.5971 31.5327 33.299 31.7907 31.4343C32.078 29.3835 33.5995 27.7236 35.4163 27.4922C37.5044 27.2236 39.1536 29.0696 39.7308 30.0857C40.7177 31.8121 40.2761 33.6687 40.0873 34.4588C40.0527 34.6184 39.127 38.3503 35.7674 39.6298C32.7138 40.7922 29.8064 39.0872 28.7104 38.4461C25.1567 36.3633 24.0501 32.6792 23.8639 31.9663C22.5765 27.0054 25.3908 22.0206 28.5508 19.4909C30.7214 17.7486 33.1101 17.0703 34.8019 16.8123H38.8637C41.2391 17.6156 43.4256 18.919 45.2131 20.6002C46.1813 21.5099 48.7482 23.9225 49.8202 27.9817C50.1128 29.0829 50.2698 30.2161 50.2884 31.3732V31.3918C50.2884 31.421 50.2884 31.453 50.291 31.4796C50.2937 31.7376 50.291 31.9983 50.2804 32.2563V32.3254L50.2777 120.603V120.741C50.2884 120.97 50.2937 121.199 50.2937 121.427C50.291 121.486 50.2884 121.542 50.2884 121.603V121.624C50.2698 122.779 50.1102 123.912 49.8202 125.013C48.7482 129.072 46.1813 131.485 45.2131 132.395C43.4256 134.073 41.2391 135.376 38.8637 136.182H34.8019C33.1101 135.924 30.7214 135.243 28.5508 133.506C25.3908 130.974 22.5791 125.992 23.8639 121.031C24.0501 120.313 25.1567 116.631 28.7104 114.549C29.8064 113.908 32.7138 112.205 35.7674 113.365C39.1297 114.647 40.0527 118.379 40.0873 118.533C40.2761 119.326 40.7177 121.183 39.7308 122.909C39.1536 123.923 37.5044 125.771 35.4163 125.503C33.5995 125.271 32.078 123.611 31.7907 121.56C31.5327 119.696 29.809 118.395 27.9444 118.658C26.0824 118.916 24.7816 120.637 25.0423 122.502C25.7578 127.623 29.6654 131.634 34.5492 132.264C39.8372 132.945 43.8352 129.474 45.652 126.293C47.1921 123.595 47.5512 120.459 46.724 116.961C46.4287 115.73 44.6412 109.455 38.196 107C34.1422 105.457 29.7931 106.018 25.2657 108.67C19.5361 112.03 17.6954 117.672 17.2671 119.321C15.2083 127.255 19.31 134.834 24.2869 138.824C27.0426 141.032 30.4315 142.465 34.0916 142.968L34.3204 143H118.682L118.911 142.968C122.571 142.465 125.96 141.032 128.716 138.824C133.693 134.836 137.794 127.258 135.736 119.321C135.307 117.672 133.467 112.03 127.737 108.67ZM101.93 16.815C100.286 18.5413 97.8013 21.6695 96.5937 26.242C96.4421 26.8166 96.3144 27.4018 96.2133 27.987H56.7894C56.6857 27.4018 56.5607 26.8166 56.409 26.242C55.2014 21.6695 52.717 18.5413 51.0731 16.815H101.93ZM95.9101 34.8019V118.198H57.09V34.8019H95.9101ZM51.0704 136.185C52.7143 134.456 55.1987 131.328 56.4064 126.758C56.558 126.184 56.6857 125.598 56.7868 125.013H96.2106C96.3144 125.598 96.4394 126.184 96.591 126.758C97.7987 131.328 100.283 134.456 101.927 136.185H51.0704Z" fill="url(#paint0_linear_36_997)"/>
<path d="M90.5421 66.7564H62.4579C60.5772 66.7564 59.0504 65.2295 59.0504 63.3489C59.0504 61.4683 60.5772 59.9415 62.4579 59.9415H90.5421C92.4227 59.9415 93.9496 61.4683 93.9496 63.3489C93.9496 65.2295 92.4227 66.7564 90.5421 66.7564Z" fill="url(#paint1_linear_36_997)"/>
<path d="M90.5421 93.0612H62.4579C60.5772 93.0612 59.0504 91.5344 59.0504 89.6537C59.0504 87.7731 60.5772 86.2463 62.4579 86.2463H90.5421C92.4227 86.2463 93.9496 87.7731 93.9496 89.6537C93.9496 91.5344 92.4227 93.0612 90.5421 93.0612Z" fill="url(#paint2_linear_36_997)"/>
<path d="M90.5421 79.9075H62.4579C60.5772 79.9075 59.0504 78.3807 59.0504 76.5C59.0504 74.6194 60.5772 73.0926 62.4579 73.0926H90.5421C92.4227 73.0926 93.9496 74.6194 93.9496 76.5C93.9496 78.3807 92.4227 79.9075 90.5421 79.9075Z" fill="url(#paint3_linear_36_997)"/>
</g>
<defs>
<linearGradient id="paint0_linear_36_997" x1="16.7233" y1="76.4974" x2="136.279" y2="76.4974" gradientUnits="userSpaceOnUse">
<stop stop-color="#83D5EC"/>
<stop offset="1" stop-color="#A288D3"/>
</linearGradient>
<linearGradient id="paint1_linear_36_997" x1="59.0504" y1="63.3489" x2="93.9496" y2="63.3489" gradientUnits="userSpaceOnUse">
<stop stop-color="#83D5EC"/>
<stop offset="1" stop-color="#A288D3"/>
</linearGradient>
<linearGradient id="paint2_linear_36_997" x1="59.0504" y1="89.6537" x2="93.9496" y2="89.6537" gradientUnits="userSpaceOnUse">
<stop stop-color="#83D5EC"/>
<stop offset="1" stop-color="#A288D3"/>
</linearGradient>
<linearGradient id="paint3_linear_36_997" x1="59.0504" y1="76.5" x2="93.9496" y2="76.5" gradientUnits="userSpaceOnUse">
<stop stop-color="#83D5EC"/>
<stop offset="1" stop-color="#A288D3"/>
</linearGradient>
<clipPath id="clip0_36_997">
<rect width="133" height="133" fill="white" transform="translate(10 10)"/>
</clipPath>
</defs>
</svg>
