<svg width="17" height="16" viewBox="0 0 17 16" fill="none" xmlns="http://www.w3.org/2000/svg">
<g clip-path="url(#clip0_42_111)">
<path d="M16.5 8C16.5 10.1217 15.6571 12.1566 14.1569 13.6569C12.6566 15.1571 10.6217 16 8.5 16C6.37827 16 4.34344 15.1571 2.84315 13.6569C1.34285 12.1566 0.5 10.1217 0.5 8C0.5 5.87827 1.34285 3.84344 2.84315 2.34315C4.34344 0.842855 6.37827 0 8.5 0C10.6217 0 12.6566 0.842855 14.1569 2.34315C15.6571 3.84344 16.5 5.87827 16.5 8ZM8.5 3.5C8.5 3.36739 8.44732 3.24021 8.35355 3.14645C8.25979 3.05268 8.13261 3 8 3C7.86739 3 7.74021 3.05268 7.64645 3.14645C7.55268 3.24021 7.5 3.36739 7.5 3.5V9C7.50003 9.08813 7.52335 9.17469 7.56761 9.25091C7.61186 9.32712 7.67547 9.39029 7.752 9.434L11.252 11.434C11.3669 11.4961 11.5014 11.5108 11.627 11.4749C11.7525 11.4391 11.8591 11.3556 11.9238 11.2422C11.9886 11.1288 12.0065 10.9946 11.9736 10.8683C11.9408 10.7419 11.8598 10.6334 11.748 10.566L8.5 8.71V3.5Z" fill="#00B3FF"/>
</g>
<defs>
<clipPath id="clip0_42_111">
<rect width="16" height="16" fill="white" transform="translate(0.5)"/>
</clipPath>
</defs>
</svg>
