<svg width="17" height="16" viewBox="0 0 17 16" fill="none" xmlns="http://www.w3.org/2000/svg">
<path d="M8.5 16C11.814 16 14.5 14 14.5 10.5C14.5 9 14 6.5 12 4.5C12.25 6 10.75 6.5 10.75 6.5C11.5 4 9.5 0.5 6.5 0C6.857 2 7 4 4.5 6C3.25 7 2.5 8.729 2.5 10.5C2.5 14 5.186 16 8.5 16ZM8.5 15C6.843 15 5.5 14 5.5 12.25C5.5 11.5 5.75 10.25 6.75 9.25C6.625 10 7.5 10.5 7.5 10.5C7.125 9.25 8 7.25 9.5 7C9.321 8 9.25 9 10.5 10C11.125 10.5 11.5 11.364 11.5 12.25C11.5 14 10.157 15 8.5 15Z" fill="#FFA600"/>
</svg>
