<svg width="14" height="14" viewBox="0 0 14 14" fill="none" xmlns="http://www.w3.org/2000/svg">
<g clip-path="url(#clip0_31_3035)">
<path d="M7 0C5.14348 0 3.36301 0.737498 2.05025 2.05025C0.737498 3.36301 0 5.14348 0 7C0 8.85652 0.737498 10.637 2.05025 11.9497C3.36301 13.2625 5.14348 14 7 14C8.85652 14 10.637 13.2625 11.9497 11.9497C13.2625 10.637 14 8.85652 14 7C14 5.14348 13.2625 3.36301 11.9497 2.05025C10.637 0.737498 8.85652 0 7 0ZM1.785 3.78525C2.06938 4.94813 4.0005 6.00775 5.03737 6.5765C5.45738 6.80662 5.73125 6.95625 5.6875 7C5.61692 7.07 5.54633 7.13825 5.47575 7.20475C5.11175 7.55125 4.78713 7.86013 4.8125 8.3125C4.84312 8.86725 5.35325 9.0335 5.87475 9.20238C6.37963 9.36687 6.89675 9.53487 7 10.0625C7.07175 10.4274 6.93438 10.927 6.8075 11.3925C6.61938 12.0768 6.45225 12.6875 7 12.6875C8.3125 12.25 10.3232 9.89975 10.5 8.3125C10.6208 7.22487 8.75 6.5625 7.4375 6.125C7.01925 5.985 6.77688 6.19588 6.57125 6.3735C6.42075 6.50475 6.2895 6.61763 6.125 6.5625C5.73562 6.433 3.9375 4.8125 4.8125 4.375C5.495 4.03375 5.6455 4.22538 5.88613 4.53425C5.95438 4.62088 6.02875 4.71625 6.125 4.8125C6.65788 5.0785 6.70425 4.697 6.75763 4.25863C6.79175 3.97688 6.8285 3.6715 7 3.5C7.37975 3.12025 8.10687 2.80788 8.7745 2.52C9.3975 2.25225 9.96887 2.00638 10.1561 1.75C11.1967 2.37574 12.0278 3.29664 12.5439 4.39573C13.06 5.49482 13.2377 6.72251 13.0546 7.92284C12.8715 9.12318 12.3357 10.242 11.5153 11.1372C10.695 12.0324 9.62709 12.6635 8.44726 12.9505C7.26743 13.2375 6.02893 13.1673 4.88908 12.7489C3.74922 12.3305 2.75944 11.5827 2.04545 10.6006C1.33148 9.61849 0.925515 8.44631 0.87914 7.23297C0.832766 6.01963 1.14807 4.81901 1.785 3.78525Z" fill="white"/>
</g>
<defs>
<clipPath id="clip0_31_3035">
<rect width="14" height="14" fill="white"/>
</clipPath>
</defs>
</svg>
