<?xml version="1.0" encoding="UTF-8"?>
<svg id="Layer_1" data-name="Layer 1" xmlns="http://www.w3.org/2000/svg" viewBox="0 0 500 500">
  <defs>
    <style>
      .cls-1 {
        fill: none;
        stroke: #000;
        stroke-linecap: round;
        stroke-miterlimit: 10;
        stroke-width: 25px;
      }
    </style>
  </defs>
  <path class="cls-1" d="M73.61,82.98c1.85-13.31,11.94-23.57,24.09-25.14,13.26-1.71,23.66,7.63,28.28,15.71,6.07,10.62,3.5,21.45,2.62,25.14-.44,1.83-5.28,20.79-23.57,27.75-16.8,6.4-31.76-2.37-36.66-5.24-17.82-10.44-22.8-28.48-23.57-31.42-6-23.13,5.86-46.13,21.47-58.65,11.43-9.16,23.64-11.72,29.85-12.57h153.89"/>
  <path class="cls-1" d="M113.93,18.56c7.03,2.17,18.78,6.88,29.85,17.28,4.47,4.2,15.67,15.01,20.42,32.99,2.08,7.87,2.28,14.71,2.09,19.38v162.34"/>
  <line class="cls-1" x1="166.34" y1="84.54" x2="250.01" y2="84.54"/>
  <path class="cls-1" d="M426.39,82.98c-1.85-13.31-11.94-23.57-24.09-25.14-13.26-1.71-23.66,7.63-28.28,15.71-6.07,10.62-3.5,21.45-2.62,25.14.44,1.83,5.28,20.79,23.57,27.75,16.8,6.4,31.76-2.37,36.66-5.24,17.82-10.44,22.8-28.48,23.57-31.42,6-23.13-5.86-46.13-21.47-58.65-11.43-9.16-23.64-11.72-29.85-12.57h-153.89"/>
  <path class="cls-1" d="M386.07,18.56c-7.03,2.17-18.78,6.88-29.85,17.28-4.47,4.2-15.67,15.01-20.42,32.99-2.08,7.87-2.28,14.71-2.09,19.38,0,54.11,0,108.23,0,162.34"/>
  <line class="cls-1" x1="333.66" y1="84.54" x2="249.99" y2="84.54"/>
  <path class="cls-1" d="M73.61,417.02c1.85,13.31,11.94,23.57,24.09,25.14,13.26,1.71,23.66-7.63,28.28-15.71,6.07-10.62,3.5-21.45,2.62-25.14-.44-1.83-5.28-20.79-23.57-27.75-16.8-6.4-31.76,2.37-36.66,5.24-17.82,10.44-22.8,28.48-23.57,31.42-6,23.13,5.86,46.13,21.47,58.65,11.43,9.16,23.64,11.72,29.85,12.57h153.89"/>
  <path class="cls-1" d="M113.93,481.44c7.03-2.17,18.78-6.88,29.85-17.28,4.47-4.2,15.67-15.01,20.42-32.99,2.08-7.87,2.28-14.71,2.09-19.38v-162.34"/>
  <line class="cls-1" x1="166.34" y1="415.46" x2="250.01" y2="415.46"/>
  <path class="cls-1" d="M426.39,417.02c-1.85,13.31-11.94,23.57-24.09,25.14-13.26,1.71-23.66-7.63-28.28-15.71-6.07-10.62-3.5-21.45-2.62-25.14.44-1.83,5.28-20.79,23.57-27.75,16.8-6.4,31.76,2.37,36.66,5.24,17.82,10.44,22.8,28.48,23.57,31.42,6,23.13-5.86,46.13-21.47,58.65-11.43,9.16-23.64,11.72-29.85,12.57-51.3,0-102.59,0-153.89,0"/>
  <path class="cls-1" d="M386.07,481.44c-7.03-2.17-18.78-6.88-29.85-17.28-4.47-4.2-15.67-15.01-20.42-32.99-2.08-7.87-2.28-14.71-2.09-19.38,0-54.11,0-108.23,0-162.34"/>
  <line class="cls-1" x1="333.66" y1="415.46" x2="249.99" y2="415.46"/>
  <line class="cls-1" x1="198.49" y1="201.75" x2="301.51" y2="201.75"/>
  <line class="cls-1" x1="198.49" y1="298.25" x2="301.51" y2="298.25"/>
  <line class="cls-1" x1="198.49" y1="250" x2="301.51" y2="250"/>
</svg>