<svg width="27" height="27" viewBox="0 0 27 27" fill="none" xmlns="http://www.w3.org/2000/svg">
<path fill-rule="evenodd" clip-rule="evenodd" d="M4.21875 20.25C4.21875 20.0262 4.30765 19.8116 4.46588 19.6534C4.62411 19.4951 4.83872 19.4062 5.0625 19.4062H21.9375C22.1613 19.4062 22.3759 19.4951 22.5341 19.6534C22.6924 19.8116 22.7812 20.0262 22.7812 20.25C22.7812 20.4738 22.6924 20.6884 22.5341 20.8466C22.3759 21.0049 22.1613 21.0938 21.9375 21.0938H5.0625C4.83872 21.0938 4.62411 21.0049 4.46588 20.8466C4.30765 20.6884 4.21875 20.4738 4.21875 20.25ZM4.21875 13.5C4.21875 13.2762 4.30765 13.0616 4.46588 12.9034C4.62411 12.7451 4.83872 12.6562 5.0625 12.6562H21.9375C22.1613 12.6562 22.3759 12.7451 22.5341 12.9034C22.6924 13.0616 22.7812 13.2762 22.7812 13.5C22.7812 13.7238 22.6924 13.9384 22.5341 14.0966C22.3759 14.2549 22.1613 14.3438 21.9375 14.3438H5.0625C4.83872 14.3438 4.62411 14.2549 4.46588 14.0966C4.30765 13.9384 4.21875 13.7238 4.21875 13.5ZM4.21875 6.75C4.21875 6.52622 4.30765 6.31161 4.46588 6.15338C4.62411 5.99515 4.83872 5.90625 5.0625 5.90625H21.9375C22.1613 5.90625 22.3759 5.99515 22.5341 6.15338C22.6924 6.31161 22.7812 6.52622 22.7812 6.75C22.7812 6.97378 22.6924 7.18839 22.5341 7.34662C22.3759 7.50486 22.1613 7.59375 21.9375 7.59375H5.0625C4.83872 7.59375 4.62411 7.50486 4.46588 7.34662C4.30765 7.18839 4.21875 6.97378 4.21875 6.75Z" fill="url(#paint0_linear_42_584)"/>
<defs>
<linearGradient id="paint0_linear_42_584" x1="4.21875" y1="13.5" x2="22.7812" y2="13.5" gradientUnits="userSpaceOnUse">
<stop stop-color="#83D5EC"/>
<stop offset="1" stop-color="#A288D3"/>
</linearGradient>
</defs>
</svg>
