<svg width="10" height="14" viewBox="0 0 10 14" fill="none" xmlns="http://www.w3.org/2000/svg">
<path d="M5 0.875C5.53043 0.875 6.03914 1.05937 6.41421 1.38756C6.78929 1.71575 7 2.16087 7 2.625V6.125H3V2.625C3 2.16087 3.21071 1.71575 3.58579 1.38756C3.96086 1.05937 4.46957 0.875 5 0.875ZM8 6.125V2.625C8 1.92881 7.68393 1.26113 7.12132 0.768845C6.55871 0.276562 5.79565 0 5 0C4.20435 0 3.44129 0.276562 2.87868 0.768845C2.31607 1.26113 2 1.92881 2 2.625V6.125C1.46957 6.125 0.960859 6.30937 0.585786 6.63756C0.210714 6.96575 0 7.41087 0 7.875V12.25C0 12.7141 0.210714 13.1592 0.585786 13.4874C0.960859 13.8156 1.46957 14 2 14H8C8.53043 14 9.03914 13.8156 9.41421 13.4874C9.78929 13.1592 10 12.7141 10 12.25V7.875C10 7.41087 9.78929 6.96575 9.41421 6.63756C9.03914 6.30937 8.53043 6.125 8 6.125ZM2 7H8C8.26522 7 8.51957 7.09219 8.70711 7.25628C8.89464 7.42038 9 7.64294 9 7.875V12.25C9 12.4821 8.89464 12.7046 8.70711 12.8687C8.51957 13.0328 8.26522 13.125 8 13.125H2C1.73478 13.125 1.48043 13.0328 1.29289 12.8687C1.10536 12.7046 1 12.4821 1 12.25V7.875C1 7.64294 1.10536 7.42038 1.29289 7.25628C1.48043 7.09219 1.73478 7 2 7Z" fill="#BEBEBE"/>
</svg>
