<?xml version="1.0" encoding="UTF-8"?>
<svg id="Layer_1" data-name="Layer 1" xmlns="http://www.w3.org/2000/svg" viewBox="0 0 500 500">
  <defs>
    <style>
      .cls-1 {
        fill: #fff;
      }
    </style>
  </defs>
  <path class="cls-1" d="M442.62,370.94c-17.02-9.96-33.37-12.08-48.61-6.28-24.23,9.22-30.95,32.82-32.06,37.46-3.12,13.14-1.76,24.93,4.03,35.07,6.84,11.96,21.85,25.02,41.74,22.45,18.35-2.37,33.05-17.45,35.74-36.7.97-7.01-3.91-13.48-10.91-14.45-7.03-.98-13.49,3.9-14.46,10.91-1.08,7.71-6.8,13.95-13.63,14.82-7.85,1.01-14.05-5.93-16.22-9.75-3.71-6.49-2.05-13.47-1.34-16.44.13-.59,3.61-14.62,16.24-19.44,11.48-4.37,22.41,2.04,26.53,4.45,13.36,7.83,17.52,21.68,18.22,24.36,4.84,18.65-5.74,37.39-17.62,46.91-8.16,6.54-17.14,9.09-23.5,10.06h-15.27c-8.93-3.02-17.15-7.92-23.87-14.24-3.64-3.42-13.29-12.49-17.32-27.75-1.1-4.14-1.69-8.4-1.76-12.74v-.08c0-.23-.01-.44-.02-.66,0-.86.02-1.72.05-2.58v-.27s.01-331.87.01-331.87v-.51c-.05-.97-.06-1.95-.05-2.92.01-.1.01-.22.01-.33v-.07c.07-4.35.67-8.61,1.76-12.75,4.03-15.26,13.68-24.33,17.32-27.75,6.72-6.31,14.94-11.21,23.87-14.24h15.27c6.36.97,15.34,3.53,23.5,10.07,11.88,9.51,22.45,28.24,17.62,46.89-.7,2.7-4.86,16.54-18.22,24.37-4.12,2.41-15.05,8.81-26.53,4.45-12.64-4.81-16.11-18.84-16.24-19.43-.71-2.98-2.37-9.96,1.34-16.45,2.17-3.81,8.38-10.76,16.22-9.75,6.83.87,12.55,7.11,13.63,14.82.97,7.01,7.44,11.91,14.46,10.92,7-.98,11.89-7.45,10.91-14.46-2.69-19.25-17.38-34.33-35.74-36.7-19.89-2.56-34.91,10.49-41.74,22.45-5.79,10.14-7.14,21.93-4.03,35.08,1.11,4.63,7.83,28.23,32.06,37.45,5.6,2.13,11.33,3.19,17.2,3.19,10.13,0,20.63-3.16,31.41-9.47,21.54-12.63,28.46-33.84,30.07-40.04,7.74-29.83-7.68-58.32-26.39-73.32-10.36-8.3-23.1-13.69-36.86-15.58l-.86-.12H91.43l-.86.12c-13.76,1.89-26.5,7.28-36.86,15.58-18.71,14.99-34.13,43.48-26.39,73.32,1.61,6.2,8.53,27.41,30.07,40.04,10.78,6.31,21.29,9.47,31.41,9.47,5.86,0,11.6-1.06,17.2-3.19,24.23-9.21,30.95-32.82,32.06-37.46,3.12-13.14,1.76-24.93-4.03-35.07-6.84-11.96-21.86-25.02-41.74-22.45-18.35,2.37-33.05,17.45-35.74,36.7-.97,7.01,3.91,13.48,10.91,14.46,7.03.97,13.49-3.91,14.46-10.92,1.08-7.71,6.8-13.95,13.63-14.82,7.85-1.01,14.05,5.93,16.22,9.75,3.71,6.49,2.05,13.47,1.34,16.44-.13.6-3.61,14.63-16.24,19.44-11.48,4.37-22.41-2.04-26.53-4.45-13.36-7.83-17.52-21.68-18.22-24.36-4.84-18.65,5.74-37.39,17.62-46.9,8.16-6.55,17.14-9.1,23.5-10.07h15.27c8.93,3.02,17.15,7.92,23.87,14.24,3.64,3.42,13.29,12.49,17.32,27.75,1.1,4.14,1.69,8.4,1.76,12.75v.07c0,.11,0,.23.01.33.01.97,0,1.95-.04,2.92v.26s-.01,331.87-.01,331.87v.52c.04.86.06,1.72.06,2.58-.01.22-.02.43-.02.66v.08c-.07,4.34-.67,8.6-1.76,12.74-4.03,15.26-13.68,24.33-17.32,27.75-6.72,6.31-14.94,11.21-23.87,14.24h-15.27c-6.36-.97-15.34-3.53-23.5-10.06-11.88-9.52-22.45-28.25-17.62-46.9.7-2.7,4.86-16.54,18.22-24.37,4.12-2.41,15.05-8.81,26.53-4.45,12.64,4.82,16.11,18.85,16.24,19.43.71,2.98,2.37,9.96-1.34,16.45-2.17,3.81-8.37,10.76-16.22,9.75-6.83-.87-12.55-7.11-13.63-14.82-.97-7.01-7.45-11.9-14.46-10.91-7,.97-11.89,7.44-10.91,14.45,2.69,19.25,17.38,34.33,35.74,36.7,19.88,2.56,34.91-10.49,41.74-22.45,5.79-10.14,7.14-21.93,4.03-35.08-1.11-4.63-7.83-28.22-32.06-37.45-15.24-5.8-31.59-3.69-48.61,6.28-21.54,12.63-28.46,33.84-30.07,40.04-7.74,29.83,7.68,58.32,26.39,73.32,10.36,8.3,23.1,13.69,36.86,15.58l.86.12h317.15l.86-.12c13.76-1.89,26.5-7.28,36.86-15.58,18.71-14.99,34.13-43.48,26.39-73.32-1.61-6.2-8.53-27.41-30.07-40.04ZM345.6,25.62c-6.18,6.49-15.52,18.25-20.06,35.44-.57,2.16-1.05,4.36-1.43,6.56h-148.21c-.39-2.2-.86-4.4-1.43-6.56-4.54-17.19-13.88-28.95-20.06-35.44h191.19ZM322.97,93.24v313.52h-145.94V93.24h145.94ZM154.4,474.38c6.18-6.5,15.52-18.26,20.06-35.44.57-2.16,1.05-4.36,1.43-6.56h148.21c.39,2.2.86,4.4,1.43,6.56,4.54,17.18,13.88,28.94,20.06,35.44h-191.19Z"/>
  <path class="cls-1" d="M302.79,213.37h-105.58c-7.07,0-12.81-5.74-12.81-12.81s5.74-12.81,12.81-12.81h105.58c7.07,0,12.81,5.74,12.81,12.81s-5.74,12.81-12.81,12.81Z"/>
  <path class="cls-1" d="M302.79,312.26h-105.58c-7.07,0-12.81-5.74-12.81-12.81s5.74-12.81,12.81-12.81h105.58c7.07,0,12.81,5.74,12.81,12.81s-5.74,12.81-12.81,12.81Z"/>
  <path class="cls-1" d="M302.79,262.81h-105.58c-7.07,0-12.81-5.74-12.81-12.81s5.74-12.81,12.81-12.81h105.58c7.07,0,12.81,5.74,12.81,12.81s-5.74,12.81-12.81,12.81Z"/>
</svg>